<svg width="56" height="56" viewBox="0 0 56 56" fill="none" xmlns="http://www.w3.org/2000/svg">
<path d="M0 28C0 12.536 12.536 0 28 0C43.464 0 56 12.536 56 28C56 43.464 43.464 56 28 56C12.536 56 0 43.464 0 28Z" fill="#4A5FEF"/>
<path fill-rule="evenodd" clip-rule="evenodd" d="M45.7335 18.6862L38.7094 24.2432L28.4668 17.9947L35.5751 12.1333L45.7335 18.6862ZM21.3586 12.1333L28.4666 17.9948L18.2245 24.2431L18.2243 24.243L18.2241 24.2431L11.2002 18.6862L21.3586 12.1333ZM18.2241 24.2431L11.2002 29.8006L21.3586 36.3535L28.4669 30.4917L18.2245 24.2431L18.2243 24.2432L18.2241 24.2431ZM38.7096 24.2435L28.4667 30.4919L35.575 36.3537L45.7334 29.8008L38.7096 24.2435ZM35.6164 37.5989L28.4874 31.7544L21.3584 37.5989L18.3076 35.6312V37.8371L28.4874 43.8682L38.6672 37.8371V35.6312L35.6164 37.5989Z" fill="white"/>
</svg>
