<svg width="56" height="56" viewBox="0 0 56 56" fill="none" xmlns="http://www.w3.org/2000/svg">
<path fill-rule="evenodd" clip-rule="evenodd" d="M50.0608 9.74412C49.645 7.50924 48.3216 6.40797 47.125 5.97496C45.8341 5.50651 43.2165 5.02128 39.9276 4.63208C37.2816 4.31924 34.1716 4.34414 32.293 4.40245C32.0676 2.85204 30.9844 1.43571 29.7724 0.945356C26.5433 -0.359583 21.554 -0.0443279 20.2731 0.316101C19.2551 0.601723 18.1285 1.18715 17.5014 2.0891C17.0809 2.69161 16.8088 3.46353 16.8067 4.54193C16.8067 5.15226 16.8236 6.59002 16.8391 7.86735C16.8519 8.93425 16.8656 9.90727 16.8699 10.2077L16.8699 10.2082L16.8712 10.3026C16.8706 11.4435 15.9497 12.3719 14.8083 12.3734H9.5727C8.45599 12.3734 7.60261 12.5618 6.95085 12.8591C6.29803 13.1567 5.83567 13.558 5.48436 14.0326C4.785 14.975 4.66367 16.1381 4.66655 17.325C4.66655 17.325 4.67684 18.2949 4.90961 20.1721C5.10305 21.6247 6.67203 31.7717 8.16236 34.8578C8.74009 36.0584 9.12505 36.5585 10.2602 37.0877C12.7895 38.1749 18.5667 39.3844 21.2744 39.7307C21.7223 39.7882 22.1425 39.8563 22.5365 39.9201L22.5366 39.9201C24.5206 40.2413 25.8411 40.4551 26.6846 38.6796C26.6879 38.6744 26.8871 38.1502 27.161 37.3812C28.0387 34.711 28.1609 32.3418 28.1609 30.6274C28.1609 30.4531 28.4156 30.4451 28.4156 30.6274C28.4156 30.6947 28.4149 30.7716 28.4141 30.8569V30.8569C28.4007 32.3048 28.3647 36.1851 31.4082 37.2703C32.6805 37.7233 35.3198 38.1272 38.0015 38.4427C40.4264 38.7226 42.1861 39.6806 42.1861 45.9264C42.1861 49.7264 41.3912 50.2473 37.2353 50.2473L36.9261 50.2475C33.7874 50.2501 32.5823 50.2511 32.5823 47.6479C32.5823 45.6611 34.3728 45.6824 35.8918 45.7004C36.0332 45.7021 36.1723 45.7037 36.3074 45.7037C36.7531 45.7037 36.7147 45.4942 36.625 45.0049C36.5722 44.7167 36.5016 44.3315 36.5016 43.835C36.5016 43.27 36.6507 42.8061 36.7628 42.4576C36.9151 41.9839 36.9989 41.7234 36.5465 41.7121C31.0637 41.5606 27.8375 41.7058 27.8375 48.5902C27.8375 54.84 30.2198 56.0005 38.0015 56.0005C44.1028 56.0005 46.2536 55.7999 48.7729 47.952C49.2716 46.4028 50.4771 41.6748 51.2068 33.7365C51.6679 28.7171 50.7717 13.5677 50.0608 9.74412ZM39.425 26.4902C38.6712 26.4637 37.9462 26.5115 37.2701 26.6206C37.4604 25.0778 38.0946 23.1847 40.3415 23.264C42.8288 23.3499 43.1773 25.71 43.1862 27.3087C42.1374 26.8393 40.8391 26.5401 39.425 26.4902ZM9.33041 10.8485H9.32695C8.04131 10.8485 6.96728 11.0685 6.0815 11.4698C6.0412 11.4875 5.75839 11.6279 5.54847 11.7322L5.54281 11.735C5.54857 11.7132 5.56098 11.6919 5.58088 11.6755L15.7522 1.54899C15.7721 1.52901 15.7922 1.51917 15.8122 1.51579L15.6332 1.85334C15.2585 2.60489 15.0435 3.50191 15.0435 4.53069V4.54546C15.0435 5.75077 15.1023 9.96684 15.1068 10.2853L15.107 10.3044C15.1064 10.6033 14.8652 10.8485 14.5652 10.8485H9.33041Z" fill="#20C05C"/>
</svg>
