<svg width="54" height="56" viewBox="0 0 54 56" fill="none" xmlns="http://www.w3.org/2000/svg">
<path fill-rule="evenodd" clip-rule="evenodd" d="M52.231 40.0175L52.2259 40.0358C52.0563 40.6564 47.8606 56.0051 32.1038 56.0005C18.2647 55.9962 11.7052 43.8263 11.7052 43.8263C10.6966 43.8832 9.72343 43.7211 8.82579 43.3875C4.76554 41.8784 2.81744 37.1789 4.21836 33.2361L1.98683 31.5108C-6.6574 24.8487 17.8301 -5.63744 26.4894 1.26095C26.5332 1.29581 28.5564 2.94343 28.5564 2.94343C31.6656 1.03323 34.7447 0.000600877 37.2477 0.000488354C39.0252 0.000263526 40.5118 0.520909 41.5129 1.61764C43.7604 4.07963 42.9527 8.78107 39.8837 13.541C40.5438 14.175 41.0908 15.0367 41.4813 15.8921C42.457 16.6537 43.0894 17.8116 43.4036 19.4108C43.598 20.3985 43.7067 21.6189 43.8027 22.6954C43.8794 23.557 43.948 24.3263 44.0456 24.8102C44.2527 24.9048 44.3859 24.9647 44.483 25.0084C44.5743 25.0495 44.6338 25.0763 44.6928 25.104C44.8029 25.1557 44.9115 25.2106 45.2228 25.368C45.2765 25.3952 45.3362 25.4254 45.4031 25.4592C46.3232 25.9244 47.4435 26.4909 48.6817 27.6963C50.8826 28.2541 51.723 30.6214 50.4352 32.2371C50.4006 32.2804 50.2451 32.4669 50.0841 32.6523C50.09 32.668 50.1048 32.6974 50.1268 32.7411L50.1269 32.7413C50.249 32.9834 50.5913 33.6624 50.8493 34.8554C51.7613 35.0733 52.4878 35.6414 52.869 36.4653C53.5284 38.0776 52.231 40.0175 52.231 40.0175ZM45.8853 51.9832V52.6464H46.1363V51.9832H46.3931V51.7739H45.6318V51.9832H45.8853ZM46.4697 52.6464V51.7739H46.8275L46.9845 52.276L47.1391 51.7739H47.4971V52.6464H47.2681V52.0148L47.081 52.6464H46.8858L46.6987 52.0165V52.6464H46.4697Z" fill="#5B453E"/>
<path fill-rule="evenodd" clip-rule="evenodd" d="M50.8242 39.081C50.6255 39.8247 49.6517 43.4699 45.7539 46.544C40.34 50.8144 33.2267 50.3822 30.5401 47.9891C29.1049 46.6416 28.4837 44.7145 28.4837 44.7145C28.4837 44.7145 28.3212 45.8005 28.2935 46.2271C27.2108 44.3789 27.3024 42.1215 27.3024 42.1215C27.3024 42.1215 26.7248 43.2024 26.4604 43.8079C25.6637 41.7724 26.0753 39.6704 26.0753 39.6704L25.445 40.6136C25.445 40.6136 25.1493 38.3097 25.8751 36.3906C26.6507 34.34 28.1546 32.8504 28.4518 32.6647C27.3108 32.3006 25.9963 31.257 25.9941 31.2552C25.9941 31.2552 26.5168 31.2899 26.8801 31.2061C26.8801 31.2061 24.5732 29.5472 24.1688 27.0091C24.503 27.4237 25.2042 27.892 25.2042 27.892C24.9772 27.2277 24.8399 25.75 25.052 24.2956L25.0527 24.2941C25.4891 21.5157 27.7703 19.7065 30.3541 19.7292C30.8479 19.7336 31.3124 19.7559 31.7556 19.7771C33.7818 19.8742 35.3623 19.95 37.2545 18.1986C37.2811 18.1739 37.3075 18.1495 37.3336 18.1252C37.7859 17.7051 38.1695 17.3487 38.8171 17.2046C38.8299 17.2018 38.846 17.1971 38.866 17.1913C38.9587 17.1642 39.1336 17.1133 39.4362 17.1133C39.8082 17.1133 40.1665 17.1973 40.4943 17.3932C41.7452 18.1404 42.0148 20.0895 42.1493 21.5186C42.4531 24.7584 42.4961 25.6655 42.9715 26.1306C43.274 26.4265 43.7514 26.5435 44.5824 26.9684C44.6808 27.0186 44.7804 27.0685 44.8811 27.1191C45.8246 27.5924 46.8736 28.1186 48.0514 29.3845C48.058 29.3915 48.0673 29.3957 48.077 29.3959C49.1764 29.4224 49.7431 30.2913 49.2358 30.9239C45.5465 35.3463 40.3939 37.4641 34.6514 37.6412C34.4672 37.646 34.1048 37.6544 33.9504 37.6581C33.9058 37.6591 33.8785 37.6597 33.8779 37.6598C31.5585 37.7303 30.8034 40.7421 32.2586 42.5533C33.1784 43.6982 34.9475 44.0744 36.4036 44.08L36.4242 44.0726C42.7028 44.2003 49.0106 39.7407 50.1 37.2815C50.1079 37.2637 50.1744 37.1071 50.1744 37.1071C50.1744 37.1071 50.1165 37.1753 50.0464 37.233C50.043 37.2353 50.0265 37.2505 49.9971 37.2774C49.4021 37.823 43.5632 43.177 36.3746 42.9747C36.3746 42.9747 35.5621 42.9579 34.7971 42.779C33.7882 42.5434 33.0217 42.0986 32.7284 41.0892C32.6412 40.9043 32.5911 40.2647 32.707 39.8341C33.0225 38.7741 33.5509 38.7649 34.3685 38.7505C34.4908 38.7484 34.6197 38.7461 34.7552 38.7402H34.7553C38.4745 38.6159 41.4756 37.6773 43.7247 36.6054C46.1231 35.4625 47.951 33.9898 48.6095 33.2464C49.4637 34.6901 49.4586 36.5438 49.4586 36.5438C49.4586 36.5438 49.7936 36.4263 50.2371 36.4263C51.6311 36.4264 51.918 37.6779 50.8628 38.9483C50.8563 38.9611 50.8441 39.0065 50.8242 39.081ZM16.1713 32.2762C16.1713 32.2762 15.9977 32.9974 15.6533 33.876C15.3227 31.0639 14.1469 30.4688 14.1469 30.4689C13.4657 30.1521 12.7126 29.9762 11.9208 29.9762C8.8657 29.9762 6.38916 32.5933 6.38916 35.8217C6.38916 39.05 8.8657 41.667 11.9208 41.667C15.3617 41.667 17.9736 38.3785 17.3657 34.7859C17.3657 34.7859 17.0148 35.6079 16.688 36.0444C16.7671 34.7583 16.5655 33.486 16.1713 32.2762Z" fill="#F2D8B4"/>
<path d="M4.64035 31.1108C4.61829 31.1051 2.53903 29.6252 2.24324 29.1379C0.493787 26.2746 3.53743 20.3934 5.70336 17.0505C11.0559 8.7886 19.9652 2.26842 24.0117 3.19955L28.1671 5.2799C26.5536 6.20039 24.9931 7.33102 24.0583 8.08297L23.1741 8.80215C23.1741 8.80215 20.5919 10.4882 19.3077 11.5512C14.1595 15.8117 9.09056 22.4073 7.21078 28.7739C7.21078 28.7737 5.66624 29.5174 4.64035 31.1108Z" fill="#207EAC"/>
<path d="M25.0558 3.20709C20.9311 2.19689 11.8499 9.27063 6.3939 18.2342C6.39232 18.2367 6.39074 18.2394 6.38916 18.242L6.41119 18.2444L10.7586 21.7775C15.532 13.9558 21.5314 9.92272 21.7006 9.80424L21.0113 5.01689L22.3026 4.37868L24.8941 5.24498L24.6958 4.35127L25.0558 3.20709Z" fill="#4FB1D3"/>
<path d="M31.2777 4.37272L26.557 7.53513L26.2267 7.7813L22.0405 4.52382L21.9443 3.90779L23.3998 3.24409C23.4746 3.26713 26.2057 4.10945 26.3209 4.14498L26.3696 2.41778L26.5033 2.02572L27.782 1.55908C27.7838 1.56029 31.2728 4.36872 31.2777 4.37272Z" fill="#FACD55"/>
<path d="M36.4691 1.55908C33.8023 1.55908 30.8083 3.03799 28.5115 4.49202C28.1893 4.69191 27.8697 4.90108 27.5565 5.11427L26.3548 4.05211L26.7912 5.65155C26.6262 5.77104 26.4652 5.8902 26.3075 6.00866L23.8243 5.20923L25.4674 6.65935C25.0922 6.95913 24.7571 7.23975 24.4791 7.48275L20.539 4.05245L20.7476 5.58985L23.6113 8.25019C23.6113 8.25019 21.077 10.0491 19.8166 11.1832C14.7641 15.7289 9.78922 22.7663 7.94434 29.5591L8.04919 29.4969C8.06343 29.4886 8.07779 29.4817 8.09204 29.4734C8.14338 29.4443 8.1945 29.4165 8.24583 29.3892C8.27879 29.3718 8.31153 29.3541 8.34448 29.3375C8.39724 29.3108 8.4501 29.2859 8.50296 29.2614C8.53406 29.2468 8.56539 29.2316 8.5966 29.2179C8.65381 29.1926 8.71092 29.1696 8.76813 29.1468C8.79456 29.1363 8.82099 29.1247 8.84742 29.1148C8.93073 29.0833 9.01372 29.0543 9.09649 29.0282C10.3508 28.6337 12.0572 28.3801 14.0548 29.2744C15.0579 26.6066 16.2564 23.8924 18.1451 21.2844C19.6766 19.1697 21.1486 17.2818 22.9155 16.2435C26.2609 12.9299 35.2777 9.41626 38.1664 12.4619C38.8494 11.2838 39.4422 10.1686 39.9306 8.77049C41.1359 5.40843 41.1579 1.55908 36.4691 1.55908Z" fill="#070A11"/>
<path d="M26.6117 4.6664L25.6322 3.11084L25.0562 3.88581L25.4009 4.495L26.6117 4.6664Z" fill="#070A11"/>
<path fill-rule="evenodd" clip-rule="evenodd" d="M35.6705 1.55908C34.2062 1.71264 32.6795 2.24539 31.2551 2.91968C26.4467 5.23529 23.0906 8.65114 22.6881 9.06083C22.6708 9.07843 22.659 9.09048 22.6527 9.09666C22.2533 9.49005 21.8552 9.89753 21.4603 10.3169C20.2853 11.5643 19.1375 12.9151 18.0618 14.3042C16.1599 16.7603 15.3685 17.9064 14.167 20.2409C14.1668 20.2412 14.175 20.2311 14.1911 20.2113C14.6256 19.6772 20.7941 12.0937 22.3726 10.486C25.3765 7.42632 30.2934 4.01882 30.3445 3.98846C32.4441 2.66925 34.2162 1.89503 35.6705 1.55908ZM47.5614 32.3556C48.389 33.7865 48.384 35.6237 48.384 35.6237C48.3982 36.151 48.3813 36.4418 48.3526 36.8496C46.6742 38.3047 41.67 42.1691 35.7075 41.9973C35.7075 41.9973 34.9202 41.9807 34.179 41.8035C33.2069 41.5713 32.467 41.1337 32.1793 40.1447L32.1747 40.1287L32.1742 40.1275C32.1697 40.1173 32.1327 40.0282 32.1089 39.8363L32.1079 39.8288L32.1072 39.8216C32.1018 39.7737 32.0973 39.7228 32.0941 39.6698L32.0931 39.6512L32.0928 39.6451C32.0886 39.5602 32.0875 39.463 32.091 39.3526C32.0925 39.3139 32.0948 39.2753 32.0979 39.2367L32.0984 39.2368L32.0988 39.2246C32.1089 39.1053 32.1266 38.9888 32.1541 38.8847C32.4598 37.8341 32.9718 37.825 33.7639 37.8108C33.8824 37.8086 34.0072 37.8064 34.1386 37.8005H34.1387C37.742 37.6773 40.6497 36.7469 42.8287 35.6847C45.1524 34.5519 46.9233 33.0924 47.5614 32.3556Z" fill="#FFFFFE"/>
<path fill-rule="evenodd" clip-rule="evenodd" d="M41.4012 23.1163C41.6627 25.9029 41.7247 26.5647 42.2771 26.9573C42.2923 26.9722 42.3078 26.9849 42.3234 26.9952C41.9526 27.1034 41.6207 27.2051 41.3264 27.2982C40.7842 26.5631 40.0312 25.8757 38.4834 25.9874C36.4321 26.1635 34.802 27.9974 35.0971 29.8184C34.1224 30.3101 33.2145 30.82 32.3702 31.3392C30.977 31.4885 29.2799 31.9696 27.7831 33.2227C26.6549 32.8674 25.355 31.8489 25.3527 31.8471C25.3527 31.8471 25.8697 31.8809 26.2289 31.7992C26.2289 31.7992 26.2041 31.7814 26.1591 31.747C26.1572 31.7446 26.1549 31.7421 26.1522 31.74C26.1215 31.7161 26.0903 31.6922 26.0586 31.6681C25.522 31.2367 23.8813 29.7679 23.5479 27.7028C23.8783 28.1074 24.5718 28.5644 24.5718 28.5644C24.5634 28.5406 24.5554 28.5157 24.5473 28.4897C24.5482 28.487 24.5488 28.4841 24.549 28.4812L24.5492 28.4778C24.5492 28.4778 24.4529 28.2033 24.3854 27.6743C24.3668 27.5256 24.3516 27.3673 24.3401 27.2015C24.3328 27.0897 24.3272 26.9711 24.3239 26.8453C24.4088 25.8014 24.675 24.9243 25.3382 24.0945C26.3052 22.8848 27.6321 22.3932 29.163 22.4168C29.5845 22.4222 30.0103 22.4657 30.4542 22.511C30.8803 22.5545 31.3231 22.5998 31.7946 22.6145C33.1094 22.6556 34.376 22.4389 35.7087 21.8413C37.0255 21.2195 37.77 20.5019 38.5492 19.3877C38.8237 19.0872 39.308 18.6474 39.7364 18.6661C40.0205 18.6661 40.2176 18.8056 40.3579 18.927C41.036 19.8342 41.2237 21.2464 41.3284 22.3443C41.3544 22.6183 41.3785 22.8753 41.4012 23.1163ZM37.397 28.4923C37.7134 27.4817 39.1489 26.9957 40.0155 27.6064C39.6283 27.8295 39.509 28.4766 39.7452 28.8519C39.2554 28.8429 38.7519 29.0346 38.3978 29.3742C38.4307 28.8932 37.8985 28.5173 37.397 28.4923ZM42.6321 48.2225C43.4068 47.8187 44.1658 47.3371 44.8937 46.7704C48.7476 43.7705 49.7108 40.2133 49.9075 39.4867C49.9273 39.4138 49.9393 39.3694 49.9457 39.3569C48.1616 41.6424 45.8277 43.4587 43.3303 44.716C41.2769 45.7505 39.7407 46.1104 39.7407 46.1104C39.7407 46.1104 40.8403 47.5478 42.6321 48.2225ZM30.9233 39.9373C31.1963 38.9306 31.9673 38.1331 33.149 38.0976L33.2216 38.0959C33.3749 38.0924 33.7322 38.0841 33.9139 38.0795C39.5925 37.9066 44.6878 35.8397 48.336 31.5234C48.8376 30.906 48.2773 30.0579 47.1901 30.0321L47.1818 30.0321L47.1745 30.0321C47.0805 30.1306 47.026 30.2707 46.9544 30.4544C46.8861 30.6299 46.8022 30.8453 46.6536 31.1022C45.5439 33.0122 44.0091 33.8857 41.9624 34.899C38.6355 36.54 36.1577 36.9061 34.3693 37.1703C32.7847 37.4045 31.7413 37.5586 31.1278 38.4489C30.7483 39.0065 30.7411 39.6294 30.9233 39.9373ZM43.018 39.2241C43.0024 39.2244 42.9862 39.2279 42.9604 39.2336C42.8794 39.2522 42.6999 39.3102 42.4399 39.3943C40.7132 39.9527 35.438 41.6586 31.9345 40.5684C31.9164 40.7869 31.9223 41.2461 32.0126 41.4456L32.013 41.4468C32.6228 41.5679 33.3945 41.6453 34.2902 41.6453C39.5946 41.6453 43.4173 39.256 43.018 39.2241ZM13.3464 38.7318L13.3418 38.7349C10.8492 38.917 8.54442 35.7611 9.90519 34.021C10.0915 33.8819 10.251 33.802 10.314 33.7704C10.3251 33.7649 10.3332 33.7608 10.3379 33.7582C10.3743 33.7391 10.4116 33.7235 10.4503 33.7073C10.4771 33.6962 10.5046 33.6847 10.533 33.6715C10.5602 33.6602 10.5916 33.6508 10.6261 33.6411C10.7367 33.6102 10.7604 33.6015 10.7847 33.5946C10.8089 33.5877 10.8336 33.5826 10.9453 33.5592H10.9451C12.1556 33.3051 13.0096 33.8359 13.3814 34.3577C13.5527 34.5979 13.5895 34.7784 13.6162 34.9094C13.6249 34.952 13.6325 34.9893 13.6433 35.0217L13.6435 35.0233C13.3537 34.6227 12.9793 34.5349 12.9793 34.5349C12.6638 34.4104 12.0574 34.6007 12.0178 35.2771C11.9995 35.5373 12.0778 35.8289 12.3025 36.0852L12.3041 36.0871C12.3121 36.0962 12.3203 36.1053 12.3288 36.1143C12.3365 36.1227 12.3444 36.131 12.3523 36.1391C12.5365 36.3282 12.7554 36.4658 12.9644 36.5972C13.3231 36.8226 13.6528 37.0298 13.7281 37.4476C13.8048 37.9073 13.6693 38.3879 13.3464 38.7318Z" fill="#E2B986"/>
<path fill-rule="evenodd" clip-rule="evenodd" d="M38.0061 12.1531C36.0002 10.5847 30.1451 11.0289 24.2835 14.8922C21.5997 16.661 19.6317 18.5957 18.1147 20.6058C18.1147 20.6058 20.4564 16.0793 25.6018 13.0852C25.2431 13.0266 24.3996 13.1292 24.1577 13.1586C24.1411 13.1607 24.1274 13.1623 24.1168 13.1636C25.0515 12.3461 26.7881 11.8003 27.988 11.5521C27.6368 11.3249 26.8004 11.2675 26.3852 11.2563C26.272 11.2533 26.2644 11.2536 26.15 11.2585C26.1404 11.2589 26.13 11.2594 26.1188 11.2598C27.2474 10.6181 29.3401 10.2415 31.2424 10.5817C31.0034 10.259 30.4611 10.0235 30.0811 9.90903C30.0479 9.89892 29.8987 9.86123 29.8987 9.86123C29.8987 9.86123 30.0258 9.83069 30.0419 9.8275C31.1879 9.60312 32.5266 9.84541 33.5856 10.2778C33.4654 9.99397 33.1714 9.66344 32.9505 9.45422C32.928 9.43279 32.796 9.33643 32.796 9.33643C33.904 9.56993 34.9657 10.0613 35.7646 10.6193C35.656 10.4059 35.3873 10.0468 35.2016 9.85068C36.2603 10.1587 37.4487 10.9263 37.958 12.0268C37.9706 12.0517 38.0028 12.1422 38.0064 12.1524L38.0061 12.1531ZM33.3077 26.8409C33.422 27.0109 33.4526 27.1392 33.4065 27.1926C33.3236 27.2911 33.0487 27.1812 32.6402 27.0179L32.6402 27.0179C32.5949 26.9998 32.5479 26.981 32.4994 26.9618C31.2558 26.49 30.3396 26.4182 28.7177 27.0424L28.5881 27.0929C28.2461 27.2265 28.0016 27.3221 27.8773 27.3033C27.6498 27.2689 27.87 26.8455 28.3671 26.4348C29.3673 25.6234 30.741 25.3715 31.9149 25.8158C32.4287 26.0081 33.0058 26.3919 33.3077 26.8409ZM33.061 28.1349C32.7201 27.8701 32.0922 27.6925 31.4404 27.8051C31.3385 27.8209 31.2425 27.8488 31.1488 27.876C31.1166 27.8854 31.0847 27.8947 31.0529 27.9034C31.0073 27.9148 30.9637 27.9312 30.9213 27.9493C30.6517 28.0648 30.4184 28.1892 30.192 28.4098C29.9323 28.6651 29.8585 28.9021 29.9336 28.9604C29.9979 29.0126 30.1426 28.952 30.3625 28.86L30.3975 28.8454L30.465 28.8174C31.3958 28.4239 32.0545 28.4134 32.682 28.4579L32.7267 28.461C33.0046 28.4802 33.1896 28.493 33.2342 28.4133C33.2674 28.3564 33.2072 28.2483 33.061 28.1349ZM13.0173 32.9903L13.0171 32.9901C12.5084 32.573 11.7875 32.3755 10.9498 32.556H10.95L10.9347 32.5593C10.8365 32.5805 10.8131 32.5856 10.7902 32.5923C10.783 32.5944 10.7758 32.5966 10.7664 32.5996L10.7664 32.5996L10.7663 32.5996C10.7441 32.6067 10.7095 32.6177 10.6323 32.6398C10.5978 32.6496 10.5666 32.6593 10.5396 32.6708C10.5115 32.6841 10.4842 32.6958 10.4577 32.7072C10.419 32.7238 10.3817 32.7397 10.3454 32.7594C10.3407 32.7621 10.3327 32.7662 10.3219 32.7717C10.2146 32.8268 9.82435 33.0271 9.50119 33.4292C9.3285 33.647 9.1958 33.8893 9.09898 34.1384C8.92403 34.5987 8.85865 35.1032 8.87734 35.5879C8.90302 36.2496 9.07615 36.6467 9.14093 36.7953C9.14866 36.813 9.15485 36.8272 9.15906 36.8379C9.3245 37.1993 8.93699 37.2736 8.58352 36.8852L8.58266 36.8843C8.29986 36.5799 8.11875 36.1163 8.03014 35.7046V35.7043C7.97784 35.4596 7.94434 35.185 7.94434 34.8895C7.94434 34.5468 7.98951 34.1758 8.10286 33.7916L8.10297 33.791L8.10308 33.7907C8.40965 32.7813 9.09866 32.019 10.1457 31.6039C10.2122 31.5773 10.2861 31.5577 10.3554 31.5392C10.3868 31.5309 10.4172 31.5228 10.4455 31.5144L10.4446 31.5147C10.6209 31.4612 11.2524 31.3312 11.8944 31.4327C12.266 31.4913 12.6039 31.6163 12.8951 31.7812C13.1858 31.9459 13.4302 32.1502 13.6159 32.3696L13.6166 32.3706C13.9201 32.7213 14.149 33.2163 14.1083 33.6569L14.1082 33.658C14.093 33.8411 14.0132 34.1037 13.8509 34.1718C13.7905 34.1968 13.73 34.1835 13.6876 34.1412C13.6401 34.094 13.6267 34.0265 13.6087 33.9357C13.5821 33.8018 13.5455 33.6173 13.3749 33.3718C13.2876 33.2459 13.1704 33.114 13.0176 32.9905L13.0173 32.9903ZM12.8384 34.6347C12.7227 34.5415 12.669 34.462 12.637 34.3396C12.5898 34.1165 12.6144 33.9869 12.8019 33.853C12.8426 33.8247 12.881 33.8005 12.9152 33.779C13.0025 33.724 13.0626 33.6862 13.0629 33.6408C13.0694 33.5213 12.5864 33.3982 12.2487 33.7362C11.9684 34.0399 11.8799 34.6731 12.3272 35.1666C12.5155 35.3731 12.7433 35.5201 12.9603 35.66C13.3173 35.8902 13.6451 36.1016 13.7201 36.5288C13.736 36.6262 13.7478 36.7345 13.7395 36.8415C13.741 36.9514 13.7089 37.1043 13.7006 37.1434L13.6988 37.1523C13.5491 37.8159 12.9297 38.449 11.9086 38.2877L11.8642 38.2811C11.7013 38.2565 11.5956 38.2406 11.5622 38.2891C11.4834 38.4006 11.9211 38.9098 12.7223 38.8913C13.5062 38.8744 14.2838 38.2776 14.5331 37.3806L14.5348 37.3742C14.5464 37.3315 14.6099 37.0978 14.6155 36.8868C14.6296 36.718 14.6176 36.5444 14.5867 36.3628C14.4341 35.5025 13.7677 35.1528 13.2658 34.8894C13.0956 34.8001 12.9444 34.7207 12.8384 34.6347ZM39.4765 27.1057C39.5429 26.6737 39.8476 26.3634 40.1574 26.4125C40.4671 26.4617 40.6646 26.8517 40.5983 27.2837C40.532 27.7156 40.2271 28.0259 39.9174 27.9768C39.6076 27.9276 39.4102 27.5376 39.4765 27.1057ZM36.7538 27.6729C36.5835 27.9888 36.7908 28.4375 37.2169 28.6748C37.6429 28.9123 38.1264 28.8487 38.2967 28.5327C38.4669 28.2167 38.2596 27.7681 37.8334 27.5307C37.4073 27.2934 36.924 27.357 36.7538 27.6729Z" fill="#916D53"/>
<path d="M37.5015 24.6207C37.4952 24.193 37.5452 23.4861 37.8429 23.3546C37.8432 23.3545 37.843 23.3545 37.8435 23.3544C38.3521 23.1156 39.0256 24.8785 39.0565 26.4436C38.6546 26.1713 38.1823 26.0557 37.6966 26.1127C37.5744 25.6088 37.5159 25.1341 37.5015 24.6207Z" fill="#5B453E"/>
</svg>
