<svg width="56" height="56" viewBox="0 0 56 56" fill="none" xmlns="http://www.w3.org/2000/svg">
<path d="M28.0001 10.8272C33.2579 10.8272 36.8046 13.0983 38.8268 14.996L46.729 7.28049C41.8757 2.76938 35.5602 0.000488281 28.0001 0.000488281C17.049 0.000488281 7.59126 6.28493 2.98682 15.4316L12.0401 22.4627C14.3113 15.7116 20.5957 10.8272 28.0001 10.8272Z" fill="#EA4335"/>
<path d="M54.88 28.6234C54.88 26.3211 54.6933 24.6411 54.2889 22.8989H28V33.29H43.4311C43.12 35.8723 41.44 39.7611 37.7067 42.3745L46.5422 49.2189C51.8311 44.3345 54.88 37.1478 54.88 28.6234Z" fill="#4285F4"/>
<path d="M12.0711 33.5407C11.48 31.7985 11.1378 29.9319 11.1378 28.003C11.1378 26.0741 11.48 24.2074 12.04 22.4652L2.98667 15.4341C1.08889 19.2296 0 23.4919 0 28.003C0 32.5141 1.08889 36.7763 2.98667 40.5719L12.0711 33.5407Z" fill="#FBBC05"/>
<path d="M27.9998 56.0018C35.5598 56.0018 41.9065 53.5129 46.542 49.2196L37.7065 42.3751C35.342 44.024 32.1687 45.1751 27.9998 45.1751C20.5954 45.1751 14.3109 40.2907 12.0709 33.5396L3.01758 40.5707C7.62202 49.7173 17.0487 56.0018 27.9998 56.0018Z" fill="#34A853"/>
</svg>
