<svg width="56" height="56" viewBox="0 0 56 56" fill="none" xmlns="http://www.w3.org/2000/svg">
<path d="M28 56C43.464 56 56 43.464 56 28C56 12.536 43.464 0 28 0C12.536 0 0 12.536 0 28C0 43.464 12.536 56 28 56Z" fill="url(#paint0_linear_20005153_3634)"/>
<path fill-rule="evenodd" clip-rule="evenodd" d="M11.2002 16.8047C11.2002 13.7091 13.6982 11.1997 16.8052 11.1997H39.1952C42.2908 11.1997 44.8002 13.6977 44.8002 16.8047V39.1947C44.8002 42.2903 42.3022 44.7997 39.1952 44.7997H16.8052C13.7096 44.7997 11.2002 42.3017 11.2002 39.1947V16.8047ZM30.1842 17.5847V28.2507C30.1842 29.3648 31.0866 30.2677 32.1997 30.2677H38.4167C39.5295 30.2677 40.4322 29.3647 40.4322 28.2507V17.5847C40.4322 16.4707 39.5298 15.5677 38.4167 15.5677H32.1997C31.0869 15.5677 30.1842 16.4708 30.1842 17.5847ZM15.5682 36.6531V17.5823C15.5682 16.4697 16.4709 15.5677 17.5837 15.5677H23.8007C24.9138 15.5677 25.8162 16.4697 25.8162 17.5823V36.6531C25.8162 37.7658 24.9135 38.6677 23.8007 38.6677H17.5837C16.4705 38.6677 15.5682 37.7657 15.5682 36.6531Z" fill="white"/>
<defs>
<linearGradient id="paint0_linear_20005153_3634" x1="0" y1="0" x2="0" y2="56" gradientUnits="userSpaceOnUse">
<stop stop-color="#0091E6"/>
<stop offset="1" stop-color="#0079BF"/>
</linearGradient>
</defs>
</svg>
