<svg width="56" height="56" viewBox="0 0 56 56" fill="none" xmlns="http://www.w3.org/2000/svg">
<path d="M28 56C43.464 56 56 43.464 56 28C56 12.536 43.464 0 28 0C12.536 0 0 12.536 0 28C0 43.464 12.536 56 28 56Z" fill="#2D8CFF"/>
<path fill-rule="evenodd" clip-rule="evenodd" d="M44.4349 18.5911L36.5219 24.3646V31.6574L44.4349 37.4309C44.9949 37.8586 45.6523 37.9908 45.6523 36.8231V19.1988C45.6523 18.1577 45.1247 18.0268 44.4349 18.5911ZM9.73926 32.3827V19.235C9.73926 18.6972 10.1792 18.2607 10.7219 18.2607H29.8964C32.8821 18.2607 35.3045 20.6589 35.3045 23.6171V36.7647C35.3045 37.3026 34.8645 37.739 34.3219 37.739H15.1473C12.1617 37.739 9.73926 35.3409 9.73926 32.3827Z" fill="white"/>
</svg>
