<svg width="113" height="28" viewBox="0 0 113 28" fill="none" xmlns="http://www.w3.org/2000/svg">
<path d="M13.029 5.47644V1.97644H1.729V26.0235H13.029V22.5235C10.7142 22.5235 8.49416 21.6254 6.85738 20.027C5.22057 18.4285 4.30102 16.2606 4.30102 14C4.30102 11.7394 5.22057 9.57137 6.85738 7.97293C8.49416 6.37446 10.7142 5.47644 13.029 5.47644Z" fill="#B4B7C9"/>
<path d="M13.0288 5.47644V22.5235C15.3436 22.5235 17.5637 21.6254 19.2005 20.027C20.8373 18.4285 21.7568 16.2606 21.7568 14C21.7568 11.7394 20.8373 9.57137 19.2005 7.97293C17.5637 6.37446 15.3436 5.47644 13.0288 5.47644Z" fill="#B4B7C9"/>
<path d="M28.0981 7.61768H30.628V19.5177H28.0981V7.61768Z" fill="#B4B7C9"/>
<path d="M32.0448 15.4412C32.0448 14.585 32.3052 13.7482 32.7927 13.0366C33.2803 12.3251 33.9733 11.771 34.7837 11.4444C35.5942 11.118 36.4856 11.0338 37.3451 11.2026C38.2046 11.3715 38.9934 11.7857 39.6115 12.3928C40.2297 13 40.6494 13.7726 40.8173 14.613C40.9852 15.4533 40.894 16.3233 40.555 17.1129C40.216 17.9025 39.6447 18.576 38.9133 19.0481C38.1819 19.5202 37.3235 19.7696 36.4468 19.7647C35.8653 19.7692 35.2888 19.6602 34.751 19.4441C34.2133 19.2281 33.725 18.9094 33.315 18.5068C32.905 18.1041 32.5815 17.6254 32.3633 17.099C32.1453 16.5726 32.037 16.009 32.0448 15.4412ZM38.3863 15.4412C38.3764 15.0721 38.2552 14.714 38.038 14.4118C37.8207 14.1096 37.5172 13.8766 37.165 13.7421C36.8129 13.6075 36.4281 13.5773 36.0585 13.6553C35.6889 13.7332 35.3511 13.9158 35.0872 14.1803C34.8234 14.4447 34.6452 14.7792 34.575 15.1421C34.5049 15.5049 34.5458 15.8799 34.6927 16.2201C34.8396 16.5603 35.0859 16.8507 35.4009 17.0549C35.7159 17.2591 36.0855 17.3681 36.4636 17.3682C36.7211 17.3732 36.9768 17.3262 37.2148 17.2301C37.4527 17.1342 37.6678 16.9913 37.8467 16.8105C38.0256 16.6296 38.1643 16.4146 38.2543 16.1791C38.3442 15.9434 38.3835 15.6923 38.3695 15.4412H38.3863Z" fill="#B4B7C9"/>
<path d="M50.8582 11.3647V19.1141C50.8582 21.8482 48.6656 23.0094 46.4478 23.0094C45.6655 23.072 44.8808 22.9203 44.1822 22.5711C43.4834 22.2219 42.8983 21.6892 42.4928 21.0329L44.6263 19.8305C44.7992 20.171 45.0742 20.4518 45.4147 20.6357C45.7552 20.8196 46.145 20.8978 46.5321 20.86C46.7788 20.8896 47.0291 20.8657 47.2651 20.79C47.5012 20.7141 47.7172 20.5884 47.8977 20.4215C48.0782 20.2547 48.2187 20.051 48.3092 19.8249C48.3997 19.599 48.4379 19.3562 48.4211 19.1141V18.3647C48.1267 18.7133 47.7531 18.99 47.3301 19.173C46.9071 19.3559 46.4462 19.4401 45.984 19.4188C44.8657 19.4188 43.7933 18.9849 43.0026 18.2127C42.2118 17.4406 41.7676 16.3932 41.7676 15.3011C41.7676 14.209 42.2118 13.1618 43.0026 12.3895C43.7933 11.6173 44.8657 11.1835 45.984 11.1835C46.4462 11.1621 46.9071 11.2463 47.3301 11.4293C47.7531 11.6123 48.1267 11.889 48.4211 12.2376V11.4141L50.8582 11.3647ZM48.4211 15.2764C48.4379 14.8824 48.3336 14.4925 48.1217 14.1568C47.9098 13.8212 47.6 13.5551 47.2319 13.3928C46.8639 13.2304 46.4546 13.1794 46.0566 13.2461C45.6587 13.3128 45.2901 13.4942 44.9986 13.7671C44.7071 14.0399 44.5058 14.3917 44.4206 14.7772C44.3355 15.1627 44.3703 15.5642 44.5206 15.9301C44.6711 16.2961 44.9301 16.6098 45.2645 16.8308C45.599 17.0519 45.9934 17.1702 46.3972 17.1705C46.6607 17.1891 46.9253 17.1534 47.1737 17.0659C47.4222 16.9784 47.6492 16.841 47.8399 16.6624C48.0307 16.484 48.1809 16.2684 48.281 16.0296C48.3811 15.7909 48.4288 15.5343 48.4211 15.2764Z" fill="#B4B7C9"/>
<path d="M52.2835 15.4412C52.2835 14.5857 52.5434 13.7495 53.0302 13.0383C53.5171 12.3271 54.209 11.7729 55.0184 11.446C55.8279 11.1189 56.7185 11.0338 57.5775 11.2013C58.4366 11.3688 59.2254 11.7814 59.8443 12.3869C60.4631 12.9924 60.8841 13.7635 61.0539 14.6027C61.2238 15.442 61.1349 16.3115 60.7986 17.1014C60.4622 17.8913 59.8934 18.566 59.1643 19.0401C58.4351 19.5142 57.5783 19.7663 56.7023 19.7647C56.1198 19.7702 55.5419 19.6621 55.0027 19.4466C54.4635 19.2312 53.9737 18.9128 53.5622 18.5101C53.1506 18.1074 52.8255 17.6285 52.6059 17.1016C52.3864 16.5746 52.2768 16.0101 52.2835 15.4412ZM58.625 15.4412C58.615 15.0717 58.4936 14.7133 58.276 14.4109C58.0585 14.1086 57.7543 13.8756 57.4017 13.7413C57.0491 13.607 56.6638 13.5773 56.2941 13.6559C55.9243 13.7345 55.5865 13.918 55.3229 14.1832C55.0594 14.4485 54.8819 14.7838 54.8128 15.1472C54.7435 15.5105 54.7856 15.8857 54.9338 16.2257C55.0819 16.5659 55.3296 16.8557 55.6458 17.0589C55.9618 17.2621 56.3323 17.3697 56.7107 17.3682C56.9682 17.3732 57.2239 17.3261 57.4618 17.2301C57.6998 17.1342 57.9149 16.9913 58.0938 16.8104C58.2727 16.6296 58.4114 16.4146 58.5014 16.179C58.5913 15.9434 58.6306 15.6923 58.6166 15.4412H58.625Z" fill="#B4B7C9"/>
<path d="M62.2935 9.18231C62.2935 8.89243 62.3815 8.60897 62.5464 8.36793C62.7114 8.12685 62.9458 7.93897 63.2201 7.82801C63.4944 7.71707 63.7962 7.68804 64.0874 7.7446C64.3785 7.80116 64.646 7.94077 64.8559 8.14578C65.0658 8.3508 65.2088 8.61202 65.2667 8.8963C65.3246 9.18067 65.2949 9.47541 65.1813 9.7433C65.0677 10.0111 64.8752 10.2401 64.6284 10.4011C64.3816 10.5622 64.0914 10.6482 63.7945 10.6482C63.3977 10.6439 63.0185 10.4881 62.738 10.2141C62.4574 9.94013 62.2978 9.56978 62.2935 9.18231ZM62.538 11.3647H65.0679V19.5176H62.538V11.3647Z" fill="#B4B7C9"/>
<path d="M75.8956 15.4412C75.924 15.9834 75.8423 16.5257 75.6551 17.037C75.4681 17.5482 75.1793 18.0183 74.8054 18.4201C74.4315 18.822 73.98 19.1476 73.4768 19.3784C72.9736 19.6091 72.4286 19.7404 71.8732 19.7647C71.4019 19.7953 70.9295 19.7216 70.4915 19.5491C70.0535 19.3765 69.661 19.1096 69.3433 18.7682V22.7953H66.8135V11.3647H69.3433V12.1306C69.6614 11.7902 70.0542 11.5245 70.4923 11.3534C70.9304 11.1822 71.4025 11.11 71.8732 11.1423C72.4264 11.1666 72.9692 11.2972 73.4707 11.5263C73.9722 11.7555 74.4226 12.079 74.7961 12.4782C75.1697 12.8773 75.459 13.3444 75.6476 13.8529C75.8363 14.3613 75.9206 14.9009 75.8956 15.4412ZM73.3658 15.4412C73.3558 15.0586 73.2304 14.6875 73.0054 14.3744C72.7805 14.0612 72.4657 13.8197 72.1009 13.6804C71.736 13.5411 71.3371 13.5101 70.9542 13.5913C70.5713 13.6724 70.2215 13.8621 69.9485 14.1366C69.6756 14.4111 69.4917 14.7581 69.4199 15.1343C69.348 15.5104 69.3915 15.8989 69.5448 16.251C69.6981 16.6031 69.9544 16.9032 70.2816 17.1137C70.6088 17.3242 70.9923 17.4356 71.3841 17.4341C71.6524 17.4452 71.9201 17.4008 72.1697 17.3038C72.4193 17.2068 72.645 17.0594 72.8322 16.8712C73.0193 16.683 73.1635 16.4583 73.2555 16.2119C73.3475 15.9654 73.385 15.7028 73.3658 15.4412Z" fill="#B4B7C9"/>
<path d="M83.5945 17.0717C83.5945 18.9494 81.908 19.7482 80.1202 19.7482C79.391 19.8123 78.659 19.6613 78.0186 19.3149C77.3782 18.9684 76.8589 18.4423 76.5278 17.8047L78.7035 16.6023C78.7897 16.8962 78.9766 17.1522 79.2329 17.3276C79.4893 17.503 79.7995 17.5871 80.1118 17.5658C80.7105 17.5658 81.0141 17.3847 81.0141 17.0553C81.0141 16.1576 76.9073 16.6353 76.9073 13.8106C76.9073 12.0317 78.4421 11.1423 80.1792 11.1423C80.8395 11.1134 81.4956 11.2598 82.0776 11.5657C82.6596 11.8716 83.1459 12.3258 83.4849 12.88L81.3092 14C81.2131 13.7875 81.0561 13.6068 80.8571 13.4797C80.658 13.3525 80.4255 13.2844 80.1877 13.2835C79.7492 13.2835 79.4878 13.4482 79.4878 13.7364C79.4878 14.6753 83.5945 14.0576 83.5945 17.0717Z" fill="#B4B7C9"/>
<path d="M92.7611 11.3647V19.5177H90.2313V18.7518C89.9437 19.0909 89.5785 19.3591 89.1662 19.5351C88.753 19.7111 88.3035 19.7897 87.8532 19.7647C86.1666 19.7647 84.7246 18.5871 84.7246 16.3883V11.3647H87.2545V16.0177C87.2342 16.2122 87.2578 16.4086 87.3236 16.5934C87.3894 16.7781 87.4948 16.9468 87.6331 17.0878C87.7722 17.2287 87.9409 17.3385 88.1273 17.4098C88.3136 17.4809 88.5135 17.5117 88.7133 17.5C89.6241 17.5 90.265 16.973 90.265 15.853V11.3647H92.7611Z" fill="#B4B7C9"/>
<path d="M107.097 14.5106V19.5177H104.567V14.7247C104.567 13.9012 104.171 13.3906 103.37 13.3906C102.569 13.3906 102.063 13.9588 102.063 14.9224V19.5177H99.5329V14.7247C99.5329 13.9012 99.1366 13.3906 98.3355 13.3906C97.5344 13.3906 97.0284 13.9588 97.0284 14.9224V19.5177H94.4985V11.3647H97.0284V12.1141C97.2906 11.7831 97.6322 11.5208 98.0243 11.3512C98.4156 11.1816 98.8448 11.1097 99.2715 11.1424C99.6991 11.1205 100.126 11.2078 100.509 11.3955C100.891 11.5832 101.218 11.8649 101.456 12.2129C101.734 11.8493 102.102 11.5604 102.525 11.3732C102.947 11.1859 103.413 11.1065 103.876 11.1424C105.849 11.1424 107.097 12.4765 107.097 14.5106Z" fill="#B4B7C9"/>
<path d="M109.222 11.3153C110.247 11.3153 111.077 10.5041 111.077 9.50354C111.077 8.50295 110.247 7.69177 109.222 7.69177C108.197 7.69177 107.367 8.50295 107.367 9.50354C107.367 10.5041 108.197 11.3153 109.222 11.3153Z" fill="#B4B7C9"/>
</svg>
