<svg width="113" height="30" viewBox="0 0 113 30" fill="none" xmlns="http://www.w3.org/2000/svg">
<path d="M32.9668 9.6514H35.7148V20.7943H32.9668V9.6514ZM36.8105 16.6028C36.8105 13.8428 38.5226 12.1885 41.0908 12.1885C43.659 12.1885 45.3711 13.8428 45.3711 16.6028C45.3711 19.3628 43.7189 21.0343 41.0908 21.0343C38.4627 21.0343 36.8105 19.4228 36.8105 16.6028ZM42.6488 16.6028C42.6488 15.0857 42.0582 14.1943 41.1165 14.1943C40.1748 14.1943 39.5927 15.0514 39.5927 16.6028C39.5927 18.1543 40.1748 19.0028 41.1165 19.0028C42.0582 19.0028 42.666 18.1543 42.666 16.6114L42.6488 16.6028ZM46.4669 21.3685H49.1207C49.2415 21.6546 49.4525 21.8933 49.7214 22.048C49.9904 22.2028 50.3025 22.2652 50.6102 22.2257C51.6632 22.2257 52.211 21.66 52.211 20.82V19.2771H52.2196C51.9928 19.7575 51.6261 20.1579 51.1678 20.4257C50.7093 20.6935 50.1807 20.8159 49.6514 20.7771C47.6397 20.7771 46.3042 19.2428 46.3042 16.6028C46.3042 13.9628 47.5798 12.3171 49.7285 12.3171C50.2713 12.2881 50.8098 12.4282 51.2697 12.7183C51.7297 13.0085 52.0885 13.4343 52.2966 13.9371H52.2196V12.3857H54.9419V20.7343C54.9419 22.7485 53.1613 24.0085 50.5417 24.0085C48.1619 24 46.6381 22.9114 46.484 21.3771L46.4669 21.3685ZM52.2196 16.6028C52.2196 15.2571 51.6032 14.4085 50.6273 14.4085C49.6514 14.4085 49.0522 15.2657 49.0522 16.6028C49.0522 17.94 49.6429 18.7285 50.6273 18.7285C51.6118 18.7285 52.2196 18 52.2196 16.6028ZM56.0291 16.6028C56.0291 13.8428 57.7412 12.1885 60.3094 12.1885C62.8776 12.1885 64.5897 13.8428 64.5897 16.6028C64.5897 19.3628 62.9289 21.0343 60.3094 21.0343C57.6898 21.0343 56.0462 19.4228 56.0462 16.6028H56.0291ZM61.8674 16.6028C61.8674 15.0857 61.2682 14.1943 60.3351 14.1943C59.402 14.1943 58.8113 15.0514 58.8113 16.6028C58.8113 18.1543 59.3934 19.0028 60.3351 19.0028C61.2767 19.0028 61.8845 18.1543 61.8845 16.6114L61.8674 16.6028ZM65.7026 10.3543C65.6906 10.074 65.7626 9.79651 65.9095 9.55763C66.0563 9.31866 66.2712 9.12923 66.5264 9.0136C66.7817 8.89788 67.0657 8.86137 67.3418 8.90868C67.618 8.95591 67.8737 9.08483 68.0761 9.2788C68.2784 9.47286 68.4182 9.72297 68.4775 9.99717C68.5366 10.2714 68.5126 10.5571 68.4083 10.8174C68.304 11.0778 68.1244 11.301 67.8924 11.4583C67.6604 11.6155 67.3867 11.6997 67.1065 11.7C66.9275 11.7045 66.7493 11.6734 66.5823 11.6085C66.4154 11.5435 66.2629 11.446 66.1339 11.3216C66.0049 11.1973 65.9019 11.0485 65.8308 10.8838C65.7597 10.7192 65.7219 10.5421 65.7197 10.3628L65.7026 10.3543ZM65.7026 12.3771H68.4848V20.8285H65.7454L65.7026 12.3771ZM78.4921 16.6028C78.4921 19.3543 77.2594 20.9485 75.162 20.9485C74.6251 20.9817 74.0909 20.849 73.6316 20.5686C73.1724 20.288 72.8102 19.8732 72.5938 19.38H72.5425V23.5457H69.7945V12.4028H72.5254V13.9114H72.5767C72.7856 13.4085 73.1443 12.9823 73.6038 12.6908C74.0634 12.3994 74.6016 12.2569 75.1449 12.2828C77.3022 12.2657 78.5435 13.8514 78.5435 16.6114L78.4921 16.6028ZM75.6928 16.6028C75.6928 15.2657 75.0679 14.4 74.1005 14.4C73.1332 14.4 72.5254 15.2571 72.5168 16.6028C72.5082 17.9485 73.1332 18.7971 74.1005 18.7971C75.0679 18.7971 75.7442 18 75.7442 16.6114L75.6928 16.6028ZM83.1833 12.18C85.4861 12.18 86.9157 13.2685 86.9329 15.0171H84.4246C84.4246 14.4085 83.9195 14.0314 83.1662 14.0314C82.4129 14.0314 82.0533 14.3228 82.0533 14.76C82.0533 15.1971 82.3701 15.3343 83.0035 15.4628L84.767 15.8228C86.4791 16.1828 87.164 16.8685 87.164 18.1457C87.164 19.86 85.5803 21.0257 83.2261 21.0257C80.872 21.0257 79.3396 19.8943 79.2283 18.1714H81.8907C81.9677 18.7971 82.4642 19.1657 83.2689 19.1657C84.0736 19.1657 84.4503 18.9085 84.4503 18.4543C84.4503 18 84.1935 17.9228 83.5343 17.7857L81.942 17.4514C80.2898 17.1 79.4252 16.2343 79.4252 14.94C79.4766 13.26 80.9148 12.1885 83.2347 12.1885L83.1833 12.18ZM96.3666 20.82H93.7043V19.2343H93.6529C93.504 19.7632 93.1795 20.2255 92.7327 20.5448C92.2858 20.8643 91.7439 21.0217 91.196 20.9914C90.7826 21.0049 90.3699 20.9306 89.9873 20.7734C89.6046 20.6163 89.2588 20.3798 88.9737 20.0796C88.6878 19.7792 88.4695 19.4219 88.3317 19.031C88.1938 18.6402 88.1399 18.2245 88.1742 17.8114V12.3857H90.9221V17.22C90.9221 18.2143 91.4443 18.7543 92.3004 18.7543C92.5015 18.7527 92.6993 18.7081 92.8816 18.6234C93.064 18.5386 93.2258 18.4157 93.3559 18.2629C93.4869 18.1102 93.5836 17.9311 93.6392 17.7379C93.694 17.5447 93.7077 17.3418 93.6786 17.1428V12.3857H96.418L96.3666 20.82ZM97.6935 12.3771H100.364V14.0057H100.424C100.572 13.4839 100.888 13.026 101.323 12.7033C101.759 12.3808 102.289 12.2118 102.83 12.2228C103.374 12.1755 103.915 12.3329 104.349 12.6642C104.783 12.9955 105.077 13.4769 105.176 14.0143H105.295C105.467 13.474 105.811 13.0055 106.276 12.6816C106.74 12.3576 107.299 12.1963 107.864 12.2228C108.239 12.2085 108.614 12.2738 108.963 12.4145C109.312 12.5551 109.627 12.7679 109.888 13.039C110.149 13.31 110.35 13.6333 110.477 13.9874C110.605 14.3416 110.657 14.7187 110.629 15.0943V20.8285H107.864V15.7971C107.864 14.94 107.461 14.46 106.682 14.46C106.509 14.4571 106.338 14.4918 106.18 14.5614C106.021 14.6311 105.881 14.7342 105.766 14.8636C105.651 14.9931 105.566 15.1458 105.515 15.3114C105.466 15.477 105.452 15.6514 105.475 15.8228V20.8285H102.856V15.7714C102.856 14.9143 102.436 14.46 101.683 14.46C101.508 14.4586 101.335 14.4946 101.176 14.5656C101.016 14.6366 100.874 14.7409 100.757 14.8717C100.642 15.0024 100.555 15.1564 100.504 15.3234C100.452 15.4904 100.436 15.6666 100.459 15.84V20.8285H97.7107L97.6935 12.3771Z" fill="#B4B7C9"/>
<path d="M27.5308 10.38C27.5309 8.67402 27.0164 7.00779 26.0547 5.59955C25.093 4.19132 23.7289 3.10673 22.1412 2.48787C20.5534 1.86901 18.816 1.74472 17.1565 2.13129C15.4969 2.51785 13.9928 3.39724 12.8408 4.65428H2.15723V27.2314H24.7144V16.68C25.5997 15.8871 26.3082 14.9163 26.7935 13.8307C27.2788 12.7451 27.5301 11.5694 27.5308 10.38ZM23.1906 10.38C23.1923 11.1974 22.9518 11.9971 22.4994 12.6776C22.047 13.3581 21.4033 13.8891 20.6494 14.203C19.8956 14.5171 19.0657 14.6001 18.2647 14.4417C17.4637 14.2833 16.7277 13.8904 16.1498 13.313C15.5719 12.7355 15.1781 11.9994 15.0182 11.1977C14.8582 10.3961 14.9395 9.56494 15.2515 8.80954C15.5635 8.0541 16.0924 7.40835 16.7711 6.95401C17.4499 6.49966 18.248 6.25714 19.0644 6.25713C20.1573 6.25713 21.2055 6.69124 21.979 7.46417C22.7527 8.23711 23.1884 9.28576 23.1906 10.38ZM20.3742 22.8857H6.49745V8.99999H10.7264C10.6447 9.45556 10.6017 9.91722 10.598 10.38C10.6003 12.6276 11.493 14.7825 13.0803 16.3718C14.6675 17.961 16.8196 18.8549 19.0644 18.8571C19.5033 18.8548 19.9413 18.8175 20.3742 18.7457V22.8857Z" fill="#B4B7C9"/>
</svg>
