<svg width="113" height="24" viewBox="0 0 113 24" fill="none" xmlns="http://www.w3.org/2000/svg">
<path d="M18.0951 10.6968C17.7892 11.0019 17.5549 11.37 17.409 11.775C17.2631 12.18 17.2091 12.612 17.2508 13.04L17.2363 13.0256C17.2792 13.5296 17.2106 14.0366 17.0354 14.5116C16.8602 14.9864 16.5825 15.4177 16.2218 15.7753C15.861 16.1328 15.4259 16.4081 14.9467 16.5817C14.4675 16.7554 13.9559 16.8234 13.4476 16.7808L13.4621 16.7952C12.854 16.7392 12.2432 16.8703 11.713 17.1708C11.1829 17.4714 10.7591 17.9267 10.4996 18.4747C10.2401 19.0227 10.1574 19.6366 10.2628 20.2329C10.3683 20.8292 10.6567 21.3787 11.0888 21.8065C11.5208 22.2344 12.0755 22.5197 12.6771 22.6236C13.2789 22.7276 13.8982 22.6451 14.4508 22.3874C15.0035 22.1296 15.4624 21.7093 15.7652 21.1836C16.0679 20.6578 16.1997 20.0524 16.1426 19.4496L16.1579 19.464C16.115 18.9602 16.1835 18.4531 16.3588 17.9781C16.534 17.5032 16.8117 17.072 17.1724 16.7144C17.5332 16.3568 17.9684 16.0816 18.4475 15.908C18.9267 15.7343 19.4382 15.6663 19.9467 15.7088L19.9313 15.6944C20.428 15.7387 20.9281 15.658 21.385 15.4597C21.8418 15.2615 22.2409 14.9521 22.545 14.5604C22.8492 14.1686 23.0487 13.707 23.1249 13.2185C23.2011 12.73 23.1518 12.2303 22.9813 11.7656C22.8108 11.3011 22.5248 10.8867 22.1497 10.5608C21.7746 10.235 21.3226 10.0083 20.8356 9.90171C20.3485 9.79515 19.8422 9.81211 19.3636 9.95107C18.885 10.0901 18.4495 10.3466 18.0975 10.6968H18.0951Z" fill="#B4B7C9"/>
<path d="M12.141 14.9087L12.1257 14.8943C12.5577 14.9374 12.9941 14.8849 13.4032 14.7404C13.8123 14.5959 14.1839 14.3632 14.4911 14.059C14.7982 13.7547 15.0334 13.3866 15.1794 12.9812C15.3255 12.5758 15.3789 12.1434 15.3357 11.7151L15.351 11.7295C15.3081 11.2256 15.3767 10.7186 15.5518 10.2436C15.7271 9.76872 16.0048 9.33744 16.3655 8.97984C16.7263 8.62232 17.1614 8.34704 17.6406 8.17344C18.1198 7.99973 18.6313 7.93179 19.1397 7.97432L19.1244 7.95992C19.7326 8.01656 20.3435 7.88581 20.874 7.5856C21.4045 7.2854 21.8286 6.8303 22.0885 6.2824C22.3484 5.73452 22.4314 5.12049 22.3263 4.52408C22.2213 3.92768 21.9331 3.37793 21.5011 2.94982C21.0692 2.52172 20.5145 2.23608 19.9128 2.13191C19.3111 2.02772 18.6916 2.11005 18.1388 2.36767C17.586 2.62528 17.1269 3.04564 16.824 3.5714C16.521 4.09716 16.3892 4.70274 16.4463 5.30552L16.4318 5.29032C16.4748 5.79424 16.4064 6.30139 16.2312 6.77636C16.0561 7.25134 15.7783 7.68269 15.4176 8.04032C15.0568 8.39784 14.6216 8.67312 14.1424 8.84672C13.6631 9.02032 13.1515 9.08816 12.643 9.04552L12.6576 9.06072C12.2255 9.0176 11.7891 9.07016 11.38 9.21464C10.971 9.35904 10.5994 9.59184 10.2922 9.89608C9.98497 10.2003 9.74985 10.5685 9.60375 10.9738C9.45774 11.3792 9.40439 11.8116 9.44757 12.2399L9.43304 12.2255C9.47582 12.7294 9.40713 13.2364 9.2319 13.7113C9.05659 14.1861 8.77893 14.6174 8.41822 14.9749C8.05748 15.3324 7.6224 15.6076 7.14331 15.7814C6.66422 15.955 6.15266 16.0231 5.64431 15.9807L5.65884 15.9951C5.05068 15.9385 4.43969 16.0692 3.90923 16.3694C3.37878 16.6697 2.95466 17.1247 2.69476 17.6726C2.43484 18.2206 2.35177 18.8346 2.45688 19.431C2.562 20.0274 2.85018 20.5771 3.28211 21.0052C3.71404 21.4334 4.26869 21.719 4.87043 21.8231C5.47216 21.9273 6.09167 21.845 6.64445 21.5874C7.19723 21.3298 7.65639 20.9094 7.95928 20.3837C8.2622 19.8578 8.39409 19.2523 8.33694 18.6495L8.35228 18.6639C8.30934 18.16 8.37795 17.653 8.55318 17.178C8.72833 16.7031 9.00606 16.2718 9.36678 15.9142C9.72757 15.5567 10.1627 15.2814 10.6418 15.1078C11.121 14.9342 11.6326 14.8662 12.141 14.9087Z" fill="#B4B7C9"/>
<path d="M6.7316 13.3032C7.03753 12.9982 7.27174 12.6301 7.41754 12.225C7.56335 11.82 7.61714 11.388 7.57507 10.96L7.59039 10.9744C7.54745 10.4704 7.61603 9.96311 7.79135 9.48807C7.96667 9.01303 8.24451 8.58167 8.60547 8.22407C8.96642 7.86648 9.40171 7.59129 9.88107 7.41773C10.3604 7.24416 10.8722 7.1764 11.3807 7.21919L11.3654 7.20479C11.9733 7.26124 12.5841 7.13045 13.1143 6.83026C13.6445 6.53008 14.0684 6.07509 14.3282 5.52737C14.5879 4.97964 14.6709 4.36584 14.5658 3.76966C14.4607 3.17348 14.1726 2.62394 13.7408 2.19599C13.3091 1.76804 12.7546 1.4825 12.1531 1.37832C11.5516 1.27414 10.9323 1.3564 10.3797 1.61385C9.82708 1.87131 9.36805 2.29144 9.06521 2.81696C8.76229 3.34248 8.63032 3.94781 8.68731 4.55039L8.67278 4.53599C8.71572 5.03987 8.64711 5.54696 8.47188 6.02188C8.29665 6.49679 8.01901 6.92808 7.65825 7.28564C7.2975 7.64321 6.86235 7.91844 6.3832 8.09207C5.90405 8.26575 5.39243 8.33375 4.88405 8.29119L4.89858 8.30559C4.40184 8.26143 3.90189 8.34231 3.44506 8.54063C2.98824 8.73895 2.5893 9.04839 2.28525 9.44023C1.98119 9.83199 1.78184 10.2936 1.70566 10.7821C1.62949 11.2706 1.67896 11.7703 1.84949 12.2348C2.02001 12.6993 2.30609 13.1137 2.68119 13.4394C3.05629 13.7653 3.50829 13.9919 3.99531 14.0985C4.48231 14.2049 4.98858 14.1879 5.46719 14.0489C5.94579 13.9099 6.38125 13.6534 6.73321 13.3032H6.7316Z" fill="#B4B7C9"/>
<path d="M31.7344 5.32404H34.1316V16.8864H31.7344V5.32404Z" fill="#B4B7C9"/>
<path d="M35.4894 12.9272C35.4861 12.0963 35.7316 11.283 36.1949 10.5905C36.6582 9.89804 37.3184 9.3574 38.092 9.03716C38.8656 8.71684 39.7176 8.63132 40.5402 8.7914C41.3629 8.95148 42.1191 9.34988 42.7131 9.93628C43.307 10.5226 43.7121 11.2705 43.8769 12.0852C44.0417 12.9 43.9588 13.7448 43.6388 14.5128C43.3187 15.2808 42.7759 15.9374 42.0791 16.3993C41.3822 16.8613 40.5628 17.108 39.7245 17.108C39.168 17.1143 38.6158 17.0105 38.1002 16.8028C37.5846 16.5952 37.116 16.2877 36.7217 15.8985C36.3273 15.5092 36.0153 15.046 35.8038 14.5358C35.5921 14.0256 35.4853 13.4788 35.4894 12.9272ZM41.5623 12.9272C41.5523 12.569 41.436 12.2217 41.228 11.9287C41.0199 11.6357 40.7293 11.41 40.3926 11.2798C40.0558 11.1496 39.6878 11.1206 39.3345 11.1966C38.9812 11.2726 38.6584 11.45 38.4063 11.7069C38.1543 11.9637 37.9842 12.2885 37.9174 12.6407C37.8506 12.9928 37.8899 13.3566 38.0306 13.6867C38.1713 14.0168 38.407 14.2984 38.7082 14.4964C39.0095 14.6944 39.363 14.8 39.7245 14.8C39.972 14.8065 40.2183 14.7621 40.4477 14.6696C40.6771 14.5772 40.8847 14.4386 41.0574 14.2627C41.23 14.0867 41.3641 13.8772 41.4509 13.6473C41.5379 13.4175 41.5758 13.1723 41.5623 12.9272Z" fill="#B4B7C9"/>
<path d="M53.5137 8.96721V16.4872C53.5137 19.148 51.42 20.2728 49.2947 20.2728C48.5465 20.3283 47.7973 20.1785 47.1292 19.8398C46.4612 19.5011 45.9001 18.9866 45.5076 18.3528L47.5529 17.1808C47.7179 17.5112 47.9808 17.7838 48.3063 17.9621C48.6319 18.1403 49.0047 18.2158 49.3747 18.1784C49.6111 18.2109 49.852 18.1902 50.0794 18.118C50.3067 18.0458 50.5147 17.9238 50.6881 17.7611C50.8615 17.5984 50.9957 17.3992 51.081 17.1781C51.1661 16.957 51.2 16.7198 51.1802 16.484V15.76C50.8995 16.1004 50.5423 16.3709 50.137 16.5497C49.7317 16.7285 49.2899 16.8106 48.8468 16.7896C47.7925 16.7566 46.7925 16.3184 46.0585 15.5675C45.3245 14.8167 44.9141 13.8122 44.9141 12.7668C44.9141 11.7214 45.3245 10.7169 46.0585 9.96609C46.7925 9.21521 47.7925 8.77697 48.8468 8.74401C49.2899 8.72297 49.7317 8.80513 50.137 8.98393C50.5423 9.16273 50.8995 9.43321 51.1802 9.77361V8.96561L53.5137 8.96721ZM51.181 12.768C51.1972 12.3851 51.0973 12.0062 50.8943 11.68C50.6913 11.3538 50.3944 11.0953 50.0419 10.9378C49.6894 10.7802 49.2975 10.7308 48.9164 10.7959C48.5354 10.861 48.1827 11.0377 47.9038 11.3032C47.6249 11.5686 47.4326 11.9107 47.3515 12.2854C47.2704 12.6602 47.3043 13.0504 47.449 13.4058C47.5935 13.7613 47.8421 14.0658 48.1627 14.28C48.4833 14.4942 48.8613 14.6085 49.2479 14.608C49.4998 14.6254 49.7526 14.5904 49.9899 14.5051C50.2273 14.4198 50.444 14.2862 50.6261 14.1129C50.8082 13.9395 50.9517 13.7303 51.0473 13.4986C51.1429 13.267 51.1885 13.0182 51.181 12.768Z" fill="#B4B7C9"/>
<path d="M54.8712 12.9272C54.8679 12.0963 55.1134 11.283 55.5767 10.5905C56.04 9.89804 56.7003 9.3574 57.4738 9.03716C58.2474 8.71684 59.0994 8.63132 59.9221 8.7914C60.7447 8.95148 61.5009 9.34988 62.0949 9.93628C62.6889 10.5226 63.0939 11.2705 63.2587 12.0852C63.4235 12.9 63.3406 13.7448 63.0206 14.5128C62.7006 15.2808 62.1578 15.9374 61.461 16.3993C60.7641 16.8613 59.9447 17.108 59.1063 17.108C58.5498 17.1143 57.9976 17.0105 57.4821 16.8028C56.9665 16.5952 56.4978 16.2877 56.1036 15.8985C55.7092 15.5092 55.3971 15.046 55.1856 14.5358C54.974 14.0256 54.8671 13.4788 54.8712 12.9272ZM60.9441 12.9272C60.9341 12.569 60.8178 12.2217 60.6098 11.9287C60.4017 11.6357 60.1112 11.41 59.7744 11.2798C59.4376 11.1496 59.0696 11.1206 58.7164 11.1966C58.3631 11.2726 58.0402 11.45 57.7881 11.7069C57.5362 11.9637 57.366 12.2885 57.2992 12.6407C57.2323 12.9928 57.2717 13.3566 57.4124 13.6867C57.5531 14.0168 57.7888 14.2984 58.09 14.4964C58.3913 14.6944 58.7448 14.8 59.1063 14.8C59.3538 14.8065 59.6001 14.7621 59.8295 14.6696C60.059 14.5772 60.2666 14.4386 60.4392 14.2627C60.6119 14.0867 60.7459 13.8772 60.8328 13.6473C60.9197 13.4175 60.9576 13.1723 60.9441 12.9272Z" fill="#B4B7C9"/>
<path d="M64.459 6.84479C64.459 6.56283 64.5433 6.28721 64.7014 6.05278C64.8594 5.81834 65.0841 5.63561 65.3469 5.52771C65.6097 5.41981 65.8989 5.39158 66.178 5.44658C66.4569 5.50159 66.7133 5.63737 66.9144 5.83674C67.1155 6.03611 67.2525 6.29013 67.308 6.56667C67.3635 6.84321 67.335 7.12985 67.2262 7.39034C67.1173 7.65084 66.933 7.87349 66.6964 8.03015C66.4599 8.18679 66.1818 8.27039 65.8973 8.27039C65.5171 8.26663 65.1534 8.11527 64.8844 7.84869C64.6156 7.58215 64.4628 7.22172 64.459 6.84479ZM64.7011 8.96719H67.0992V16.8872H64.6979L64.7011 8.96719Z" fill="#B4B7C9"/>
<path d="M77.4504 12.9272C77.4781 13.4507 77.4012 13.9743 77.2239 14.4682C77.0467 14.962 76.7728 15.4163 76.4178 15.8048C76.0629 16.1933 75.6339 16.5085 75.1557 16.7322C74.6774 16.9558 74.1593 17.0835 73.631 17.108C73.1867 17.132 72.7427 17.0578 72.331 16.8907C71.9193 16.7235 71.5503 16.4676 71.2507 16.1416V20.0544H68.8535V8.96722H71.2507V9.71122C71.5504 9.38546 71.9195 9.12978 72.3312 8.96282C72.7429 8.79578 73.1868 8.72162 73.631 8.74562C74.1593 8.77002 74.6776 8.8977 75.156 9.12138C75.6344 9.34506 76.0634 9.66026 76.4184 10.0489C76.7734 10.4375 77.0473 10.8919 77.2244 11.3859C77.4015 11.8799 77.4783 12.4037 77.4504 12.9272ZM75.0532 12.9272C75.0438 12.5566 74.9244 12.1969 74.7097 11.8931C74.4951 11.5895 74.1949 11.3552 73.8467 11.2199C73.4985 11.0844 73.1177 11.0538 72.7519 11.1319C72.3862 11.2099 72.0519 11.3931 71.7907 11.6585C71.5295 11.924 71.3532 12.2599 71.2837 12.6243C71.2142 12.9886 71.2546 13.3651 71.4 13.7067C71.5453 14.0484 71.7891 14.3399 72.1008 14.545C72.4125 14.7499 72.7782 14.8593 73.1524 14.8592C73.4092 14.8706 73.6655 14.8279 73.9046 14.7342C74.1436 14.6405 74.36 14.4977 74.5394 14.3153C74.7189 14.1328 74.8574 13.9149 74.946 13.6757C75.0345 13.4365 75.0711 13.1814 75.0532 12.9272Z" fill="#B4B7C9"/>
<path d="M84.8479 14.5104C84.8479 16.332 83.2505 17.108 81.5249 17.108C80.8275 17.1706 80.1275 17.0245 79.5149 16.6884C78.9024 16.3524 78.4057 15.842 78.0889 15.2232L80.1656 14.0512C80.2497 14.3372 80.4301 14.5861 80.6769 14.7561C80.9235 14.9262 81.2222 15.0072 81.5216 14.9856C82.0963 14.9856 82.3845 14.8112 82.3845 14.4952C82.3845 13.6232 78.4529 14.0832 78.4529 11.3432C78.4529 9.61603 79.9235 8.74563 81.5854 8.74563C82.2101 8.72603 82.8284 8.87291 83.3765 9.17091C83.9245 9.46899 84.3822 9.90723 84.701 10.44L82.6557 11.5328C82.5661 11.3254 82.4168 11.1487 82.2263 11.0248C82.0358 10.9008 81.813 10.8352 81.5854 10.836C81.1697 10.836 80.9139 10.996 80.9139 11.2792C80.9171 12.1824 84.8479 11.58 84.8479 14.5104Z" fill="#B4B7C9"/>
<path d="M93.6044 8.96722V16.8872H91.2072V16.1424C90.9303 16.4711 90.5792 16.73 90.1821 16.898C89.785 17.066 89.354 17.1383 88.9229 17.1088C87.3087 17.1088 85.9365 15.9688 85.9365 13.8288V8.96722H88.3337V13.4808C88.3136 13.6695 88.3353 13.8602 88.3975 14.0396C88.4588 14.2191 88.5597 14.3831 88.6921 14.5202C88.8245 14.6572 88.9851 14.764 89.1635 14.8332C89.3411 14.9024 89.5323 14.9323 89.7236 14.9208C90.6026 14.9208 91.2096 14.4144 91.2096 13.2896V8.96962L93.6044 8.96722Z" fill="#B4B7C9"/>
<path d="M107.35 12.0239V16.8863H104.953V12.2295C104.953 11.4375 104.569 10.9311 103.803 10.9311C103.004 10.9311 102.556 11.4855 102.556 12.4199V16.8863H100.159V12.2295C100.159 11.4375 99.7758 10.9311 99.0082 10.9311C98.2091 10.9311 97.762 11.4855 97.762 12.4199V16.8863H95.3647V8.96635H97.762V9.69435C98.0106 9.37139 98.3366 9.11523 98.7103 8.94939C99.0849 8.78347 99.4949 8.71315 99.9033 8.74475C100.313 8.72483 100.722 8.81067 101.089 8.99379C101.455 9.17683 101.768 9.45107 101.996 9.78955C102.262 9.43539 102.614 9.15379 103.019 8.97107C103.424 8.78835 103.87 8.71051 104.314 8.74475C106.148 8.74555 107.35 10.0439 107.35 12.0239Z" fill="#B4B7C9"/>
<path d="M109.378 8.91837C110.36 8.91837 111.157 8.12893 111.157 7.15517C111.157 6.18138 110.36 5.39197 109.378 5.39197C108.395 5.39197 107.599 6.18138 107.599 7.15517C107.599 8.12893 108.395 8.91837 109.378 8.91837Z" fill="#B4B7C9"/>
</svg>
